<svg width="120" height="120" viewBox="0 0 120 120" fill="none" xmlns="http://www.w3.org/2000/svg">
<circle cx="60" cy="60" r="60" fill="#222222"/>
<path d="M69.3269 39.6705C73.5946 38.527 77.9822 41.06 79.1257 45.3278L91.5486 91.692C92.692 95.9597 90.159 100.346 85.8914 101.49C81.6238 102.633 77.237 100.1 76.0935 95.8326L63.6707 49.4684C62.5272 45.2008 65.0595 40.8143 69.3269 39.6705ZM39.4031 44.4987C40.5468 40.2312 44.9333 37.6989 49.2009 38.8424C53.4686 39.986 56.0017 44.3726 54.8582 48.6403L42.4343 95.0045C41.2908 99.2722 36.9042 101.805 32.6365 100.662C28.3689 99.5182 25.836 95.1315 26.9792 90.8639L39.4031 44.4987ZM83.9998 18.4C88.418 18.4 91.9998 21.9817 91.9998 26.4C91.9997 30.8183 88.418 34.4 83.9998 34.4H35.9998C31.5816 34.3999 27.9998 30.8182 27.9998 26.4C27.9998 21.9818 31.5816 18.4001 35.9998 18.4H83.9998Z" fill="white"/>
</svg>
