<svg width="350" height="350" viewBox="0 0 350 350" fill="none" xmlns="http://www.w3.org/2000/svg">
<mask id="mask0_220_208" style="mask-type:alpha" maskUnits="userSpaceOnUse" x="0" y="0" width="350" height="350">
<circle cx="175" cy="175" r="175" fill="#D9D9D9"/>
</mask>
<g mask="url(#mask0_220_208)">
<path d="M122.754 136.207C121.508 129.93 115.532 124.086 107.332 125.878C99.1409 127.675 99.1109 135.316 100.357 141.6C100.427 141.925 104.458 158.902 106.829 162.471C109.196 166.049 112.634 172.837 118.397 170.903C122.209 169.624 124.453 162.835 125.355 157.935C126.256 153.033 122.754 136.207 122.754 136.207Z" fill="#F9BB8D"/>
<path d="M227.08 135.952C228.327 129.674 234.301 123.831 242.501 125.624C250.7 127.418 251.503 135.284 250.261 141.559C250.192 141.892 245.834 157.603 243.79 162.44C242.108 166.423 237.529 173.437 231.578 170.984C227.858 169.449 225.381 162.577 224.478 157.677C223.578 152.778 227.08 135.952 227.08 135.952Z" fill="#F9BB8D"/>
<path d="M43.5 364.5L308.5 362C308.5 362 296.705 265.799 288.363 256.446C280.017 247.093 216.453 226.183 216.453 226.183L133.372 225.942C133.372 225.942 66.4879 245.516 61.9199 256.446C57.3509 267.374 43.5 364.5 43.5 364.5Z" fill="#259DAB"/>
<path d="M166.585 226.036L133.373 225.941C133.373 225.941 66.4889 245.515 61.9209 256.445C57.3519 267.374 40.5 366 40.5 366L76 370.5C76 370.5 90.8949 267.373 95.4629 256.445C99.8539 245.941 161.77 227.459 166.585 226.036Z" fill="white" fill-opacity="0.2"/>
<path d="M142.36 221.857C142.36 221.857 163.305 239.032 175.053 239.032C186.798 239.032 207.738 221.857 207.738 221.857C207.738 221.857 198.876 211.542 204.985 197.99C211.093 184.441 136.86 185.551 145.49 197.99C154.116 210.43 142.36 221.857 142.36 221.857Z" fill="#D99870"/>
<path d="M164.122 235.935C165.685 231.641 168.822 227.337 173.851 223.674C178.878 220.009 181.854 223.3 203.12 211.096C202.536 207.373 202.772 202.898 204.985 197.989C211.093 184.44 136.86 185.55 145.49 197.989C154.116 210.429 142.36 221.856 142.36 221.856C142.36 221.856 153.524 230.991 164.122 235.935Z" fill="#C58862"/>
<path d="M138.227 220.641L133.372 225.942C133.372 225.942 147.845 261.689 160.413 266.219C164.25 267.604 172.247 249.888 175.035 249.888C176.38 249.888 187.176 268.681 188.816 268.308C201.69 265.372 216.453 226.183 216.453 226.183L211.011 222.055L175.035 244.697L138.227 220.641Z" fill="#C5D2DB"/>
<path d="M235.084 88.9781C235.084 61.7391 218.209 34.4091 173.531 34.4091C128.853 34.4091 112.631 64.3161 112.631 91.5581C112.631 92.9881 112.493 167.058 121.169 184.066C129.843 201.07 153.722 218.428 175.048 218.508C198.369 218.6 219.326 203.619 229.118 184.066C238.913 164.507 235.084 88.9781 235.084 88.9781Z" fill="#F9BB8D"/>
<path d="M129.824 95.1121C130.206 95.3841 130.552 95.6211 131.002 95.9501C132.224 97.1001 126.089 110.776 127.875 110.845C136.725 112.707 147.343 93.5381 155.99 96.2241C171.214 100.963 199.846 139.332 227.947 138.581C235.332 131.46 235.085 88.9771 235.085 88.9771C235.085 61.7381 218.21 34.4081 173.532 34.4081C136.514 34.4081 119.074 54.9431 114.167 77.4761C121.077 80.4301 126.862 86.1421 129.824 95.1121Z" fill="#F1B283"/>
<path d="M192.543 199.019C171.216 198.938 147.339 181.58 138.663 164.574C129.989 147.565 130.128 73.4971 130.128 72.0661C130.128 62.5951 132.145 52.8281 136.581 44.0851C119.544 55.1001 112.633 73.8631 112.633 91.5591C112.633 92.9891 112.495 167.059 121.171 184.067C129.845 201.071 153.724 218.429 175.05 218.509C197.099 218.595 217.021 205.203 227.407 187.216C217.473 194.54 205.371 199.067 192.543 199.019Z" fill="#F1B283"/>
<path d="M227.106 187.665C227.198 187.51 227.316 187.371 227.407 187.216C226.907 187.581 226.382 187.909 225.872 188.263C226.29 188.076 226.695 187.86 227.106 187.665Z" fill="#F0E8E4"/>
<path d="M185.172 212.763C163.848 212.683 139.967 195.327 131.294 178.318C122.619 161.31 122.756 87.2451 122.756 85.8111C122.756 73.6051 126.152 60.9521 133.781 50.6231C134.58 48.3971 135.503 46.2061 136.58 44.0841C119.543 55.0991 112.632 73.8621 112.632 91.5581C112.632 92.9881 112.494 167.058 121.17 184.066C129.844 201.07 153.723 218.428 175.049 218.508C187.145 218.557 198.528 214.454 208.122 207.855C200.993 210.992 193.23 212.797 185.172 212.763Z" fill="#F1B283"/>
<path d="M245.079 82.4821C239.581 52.4951 215.092 30.7531 175.05 31.0021C135.124 31.2521 108.882 55.7231 103.636 83.4801C101.387 95.3681 99.6498 117.967 100.574 131.437C107.333 125.879 110.12 125.156 113.393 126.459C115.632 150.953 120.961 150.585 120.961 150.585C120.961 150.585 121.452 133.951 122.539 122.959C123.628 111.97 141.621 109.973 150.617 90.9681C179.107 89.7291 197.097 126.215 228.335 128.213C225.245 146.271 232.086 153.455 232.086 153.455C232.086 153.455 232.811 138.537 235.331 131.462C237.528 125.297 244.08 125.297 247.319 127.971C248.875 116.752 248.117 99.0491 245.079 82.4821Z" fill="#121516"/>
<g opacity="0.5">
<path d="M245.079 82.4821C239.581 52.4951 215.092 30.7531 175.05 31.0021C140.005 31.2201 115.513 50.1041 106.498 73.4891C117.728 54.2601 140.249 39.8131 170.854 39.6241C210.898 39.3771 235.386 61.1161 240.885 91.1061C243.118 103.287 244.109 116.063 243.863 126.445C245.164 126.689 246.383 127.203 247.319 127.971C248.875 116.752 248.117 99.0491 245.079 82.4821Z" fill="black"/>
</g>
<path d="M150.618 76.7201C141.622 95.7271 112.633 113.637 100.574 117.189C100.532 116.574 100.522 115.85 100.491 115.197C100.27 121.138 100.259 126.832 100.574 131.437C107.333 125.879 110.12 125.156 113.393 126.459C115.632 150.953 120.961 150.585 120.961 150.585C120.961 150.585 121.452 133.951 122.539 122.959C123.628 111.97 141.621 109.973 150.617 90.9681C178.983 89.7331 196.956 125.879 227.946 128.161C205.089 120.226 179.108 75.4831 150.618 76.7201Z" fill="black"/>
<path d="M138.227 212.145L133.372 225.942C133.372 225.942 147.845 253.193 160.413 257.723C164.25 259.108 172.247 241.394 175.035 241.394C176.38 241.394 187.176 260.188 188.816 259.812C201.69 256.876 216.453 226.183 216.453 226.183L211.011 213.559L175.035 236.202L138.227 212.145Z" fill="white"/>
</g>
</svg>
